#!OML:ASF H:\GeneralSubjects\Female5\Project 1\Capture day 1\Session 1\Female5.ASF
:FULLY-SPECIFIED
:DEGREES
668
root -26.5621 15.8035 1.97304 -173.334 -16.8517 -180.346
lowerback 7.4667 1.94809 -6.1979
upperback -7.69931 1.30712 -1.25269
thorax -12.758 0.963787 1.89314
lowerneck -24.0868 -2.53017 3.93785
upperneck 37.6114 -13.2638 8.53809
head 19.0463 -4.50527 -0.0744996
rclavicle 3.27995e-015 -4.77083e-014
rhumerus 14.6385 54.3242 -49.1219
rradius 131.95
rwrist -38.9132
rhand 2.30485 -16.8445
rfingers 7.12502
rthumb 27.7961 -44.809
lclavicle 3.27995e-015 -4.77083e-014
lhumerus -38.8596 0.995704 74.6692
lradius 35.8202
lwrist -4.70221
lhand -27.7278 35.4984
lfingers 7.12502
lthumb -1.12302 65.4752
rfemur -13.3081 -1.20648 11.9699
rtibia 24.4207
rfoot -40.7591 -28.617
rtoes 7.45859
lfemur 8.49014 24.3963 -31.9316
ltibia -17.8782
lfoot -0.0914764 -4.53946
ltoes -43.0697
669
root -26.5517 15.7975 1.97688 -173.403 -16.7343 -180.433
lowerback 7.19828 1.97827 -6.07087
upperback -7.78446 1.3686 -1.25835
thorax -12.6901 0.97597 1.81027
lowerneck -24.2059 -2.61128 3.68871
upperneck 38.008 -13.3588 8.37955
head 19.3176 -4.58781 -0.137309
rclavicle -1.66979e-014 1.82882e-014
rhumerus 16.0455 53.9077 -48.0229
rradius 132.048
rwrist -38.8543
rhand 3.04596 -18.1703
rfingers 7.12502
rthumb 28.5045 -46.0181
lclavicle -1.66979e-014 1.82882e-014
lhumerus -38.7814 0.821236 74.9052
lradius 37.1713
lwrist -3.66617
lhand -28.0864 35.518
lfingers 7.12502
lthumb -1.46938 65.4927
rfemur -11.4524 -1.27159 11.7329
rtibia 25.258
rfoot -40.3085 -28.6168
rtoes 8.42095
lfemur 8.75559 25.6661 -31.5289
ltibia -17.7579
lfoot 0.831596 -5.34501
ltoes -42.4971
670
root -26.5392 15.7926 1.97942 -173.481 -16.6106 -180.503
lowerback 6.92995 2.00459 -5.92729
upperback -7.86878 1.42815 -1.25063
thorax -12.6203 0.986676 1.73362
lowerneck -24.2522 -2.65986 3.48228
upperneck 38.3351 -13.3541 8.17126
head 19.5136 -4.63651 -0.204566
rclavicle -2.92213e-014 2.94201e-014
rhumerus 17.3876 53.4713 -47.0106
rradius 132.185
rwrist -38.8723
rhand 3.7488 -19.6133
rfingers 7.12502
rthumb 29.1759 -47.3467
lclavicle -2.92213e-014 2.94201e-014
lhumerus -38.7933 0.667447 75.1565
lradius 38.458
lwrist -2.69376
lhand -28.402 35.5482
lfingers 7.12502
lthumb -1.77421 65.5205
rfemur -9.50637 -1.1362 11.5842
rtibia 25.7924
rfoot -39.6257 -28.6965
rtoes 9.42226
lfemur 9.05697 26.9409 -31.0781
ltibia -17.648
lfoot 1.78937 -6.10921
ltoes -40.9937
671
root -26.5242 15.7889 1.98154 -173.565 -16.4759 -180.554
lowerback 6.66731 2.02564 -5.77225
upperback -7.95462 1.48236 -1.22868
thorax -12.555 0.994849 1.66729
lowerneck -24.2146 -2.67103 3.32271
upperneck 38.5862 -13.247 7.92338
head 19.6255 -4.64947 -0.270584
rclavicle -2.94201e-014 -5.24792e-014
rhumerus 18.6803 53.0264 -46.0421
rradius 132.346
rwrist -38.8605
rhand 4.55341 -21.0091
rfingers 7.12502
rthumb 29.9439 -48.6065
lclavicle -2.94201e-014 -5.24792e-014
lhumerus -38.906 0.50192 75.4282
lradius 39.6506
lwrist -1.82438
lhand -28.6793 35.5881
lfingers 7.12502
lthumb -2.04197 65.558
rfemur -7.51028 -0.807303 11.5488
rtibia 26.0481
rfoot -38.8717 -28.7836
rtoes 10.4216
lfemur 9.38311 28.2246 -30.5804
ltibia -17.5361
lfoot 2.81881 -6.82883
ltoes -39.2334
672
root -26.5063 15.7866 1.98416 -173.649 -16.3257 -180.59
lowerback 6.41087 2.04113 -5.61004
upperback -8.04441 1.52938 -1.19457
thorax -12.4973 0.999751 1.61161
lowerneck -24.1005 -2.65125 3.2019
upperneck 38.765 -13.0586 7.65358
head 19.6612 -4.63373 -0.330823
rclavicle -6.6891e-014 -1.90833e-014
rhumerus 19.9196 52.5987 -45.0794
rradius 132.519
rwrist -38.7797
rhand 5.44254 -22.2224
rfingers 7.12502
rthumb 30.792 -49.6633
lclavicle -6.6891e-014 -1.90833e-014
lhumerus -39.1181 0.297031 75.7194
lradius 40.7144
lwrist -1.1027
lhand -28.9072 35.6109
lfingers 7.12502
lthumb -2.2621 65.5787
rfemur -5.50834 -0.312784 11.6405
rtibia 26.0368
rfoot -38.101 -28.9577
rtoes 11.0186
lfemur 9.7188 29.5191 -30.0472
ltibia -17.4153
lfoot 3.95076 -7.49344
ltoes -36.6999
673
root -26.4849 15.7858 1.98791 -173.73 -16.1574 -180.595
lowerback 6.16044 2.05273 -5.42484
upperback -8.13442 1.57423 -1.14715
thorax -12.4425 1.00246 1.55812
lowerneck -23.946 -2.61428 3.10741
upperneck 38.8715 -12.8138 7.37313
head 19.6343 -4.59612 -0.384489
rclavicle 3.19049e-014 2.3059e-014
rhumerus 21.1124 52.1872 -44.0944
rradius 132.733
rwrist -38.6214
rhand 6.32352 -23.2417
rfingers 7.12502
rthumb 31.6315 -50.5209
lclavicle 3.19049e-014 2.3059e-014
lhumerus -39.3988 0.0386821 76.03
lradius 41.6119
lwrist -0.556757
lhand -29.0438 35.6172
lfingers 7.12502
lthumb -2.39397 65.5835
rfemur -3.54924 0.316206 11.8874
rtibia 25.7723
rfoot -37.2977 -29.1977
rtoes 11.4649
lfemur 10.0485 30.8261 -29.4689
ltibia -17.2858
lfoot 5.21036 -8.08678
ltoes -36.0816
674
root -26.4596 15.7862 1.99292 -173.802 -15.9687 -180.575
lowerback 5.91561 2.06043 -5.22574
upperback -8.21655 1.61682 -1.08613
thorax -12.3813 1.0038 1.51224
lowerneck -23.7788 -2.56132 3.0455
upperneck 38.8994 -12.5077 7.06982
head 19.5467 -4.53223 -0.437364
rclavicle -2.40529e-014 -4.73108e-014
rhumerus 22.2882 51.7867 -43.0851
rradius 132.936
rwrist -38.3495
rhand 7.24709 -23.9923
rfingers 7.12502
rthumb 32.5109 -51.0945
lclavicle -2.40529e-014 -4.73108e-014
lhumerus -39.7185 -0.258598 76.3566
lradius 42.3185
lwrist -0.221114
lhand -29.0503 35.5983
lfingers 7.12502
lthumb -2.4003 65.5645
rfemur -1.66777 1.05199 12.2838
rtibia 25.2561
rfoot -36.4917 -29.6388
rtoes 11.3649
lfemur 10.365 32.1466 -28.8525
ltibia -17.1484
lfoot 6.58657 -8.60117
ltoes -35.1905
675
root -26.4301 15.7877 1.99938 -173.859 -15.757 -180.539
lowerback 5.67973 2.06491 -5.02775
upperback -8.28598 1.65644 -1.01302
thorax -12.311 1.00481 1.48076
lowerneck -23.6285 -2.49867 3.014
upperneck 38.857 -12.1543 6.74152
head 19.4137 -4.44553 -0.494292
rclavicle -5.79457e-014 1.70955e-014
rhumerus 23.4502 51.3943 -42.0844
rradius 133.115
rwrist -37.9894
rhand 8.1951 -24.5383
rfingers 7.12502
rthumb 33.4125 -51.4506
lclavicle -5.79457e-014 1.70955e-014
lhumerus -40.0633 -0.581358 76.6917
lradius 42.8306
lwrist -0.110785
lhand -28.9595 35.5258
lfingers 7.12502
lthumb -2.31264 65.4931
rfemur 0.11017 1.85438 12.811
rtibia 24.4789
rfoot -35.5891 -30.0656
rtoes 11.4814
lfemur 10.6614 33.4824 -28.2108
ltibia -16.9993
lfoot 8.01906 -9.04204
ltoes -33.9957
676
root -26.396 15.7901 2.00772 -173.898 -15.5205 -180.464
lowerback 5.45461 2.0665 -4.80315
upperback -8.34506 1.6964 -0.928441
thorax -12.2342 1.0046 1.44679
lowerneck -23.5309 -2.43453 3.00934
upperneck 38.7601 -11.7802 6.39666
head 19.2597 -4.34359 -0.558357
rclavicle 4.28381e-014 2.94201e-014
rhumerus 24.5285 51.0159 -41.1382
rradius 133.289
rwrist -37.6146
rhand 9.10883 -24.981
rfingers 7.12502
rthumb 34.2806 -51.702
lclavicle 4.28381e-014 2.94201e-014
lhumerus -40.4226 -0.929158 77.0178
lradius 43.1542
lwrist -0.20041
lhand -28.8173 35.4141
lfingers 7.12502
lthumb -2.17523 65.3828
rfemur 1.73813 2.70587 13.4871
rtibia 23.4679
rfoot -34.6198 -30.4162
rtoes 11.7701
lfemur 10.9184 34.8367 -27.5285
ltibia -16.8337
lfoot 9.46341 -9.41117
ltoes -32.3407
677
root -26.3573 15.7936 2.01836 -173.914 -15.2536 -180.328
lowerback 5.23518 2.06501 -4.52681
upperback -8.39759 1.73907 -0.83046
thorax -12.1512 1.00205 1.39813
lowerneck -23.5069 -2.37109 3.03188
upperneck 38.6294 -11.401 6.03547
head 19.105 -4.23152 -0.634152
rclavicle 1.88845e-014 4.77083e-015
rhumerus 25.5105 50.6485 -40.2914
rradius 133.397
rwrist -37.2349
rhand 10.1418 -25.2698
rfingers 7.12502
rthumb 35.2608 -51.7645
lclavicle 1.88845e-014 4.77083e-015
lhumerus -40.7909 -1.27242 77.3131
lradius 43.2967
lwrist -0.467337
lhand -28.6734 35.2846
lfingers 7.12502
lthumb -2.03631 65.2547
rfemur 3.16856 3.63915 14.3278
rtibia 22.2855
rfoot -33.8356 -30.6506
rtoes 11.9958
lfemur 11.1268 36.2161 -26.7909
ltibia -16.6559
lfoot 10.882 -9.71773
ltoes -30.5218
678
root -26.314 15.7982 2.03173 -173.91 -14.948 -180.116
lowerback 5.0196 2.06287 -4.18717
upperback -8.44664 1.78836 -0.716935
thorax -12.0642 0.998044 1.32998
lowerneck -23.5523 -2.305 3.07957
upperneck 38.4765 -11.0247 5.67199
head 18.9586 -4.11214 -0.716877
rclavicle -3.06128e-014 -3.97569e-016
rhumerus 26.4076 50.3185 -39.5333
rradius 133.482
rwrist -37.0061
rhand 10.9847 -25.6458
rfingers 7.12502
rthumb 36.0597 -51.9476
lclavicle -3.06128e-014 -3.97569e-016
lhumerus -41.1654 -1.57832 77.5595
lradius 43.2744
lwrist -0.87887
lhand -28.487 35.1785
lfingers 7.12502
lthumb -1.85629 65.1502
rfemur 4.37212 4.68935 15.3354
rtibia 20.9927
rfoot -33.5798 -30.8751
rtoes 11.6064
lfemur 11.2859 37.6313 -25.982
ltibia -16.4618
lfoot 12.2264 -9.99232
ltoes -28.4032
679
root -26.2663 15.8038 2.04835 -173.885 -14.5977 -179.841
lowerback 4.81409 2.05938 -3.8006
upperback -8.4968 1.83935 -0.591951
thorax -11.9827 0.991274 1.2476
lowerneck -23.6521 -2.23039 3.15858
upperneck 38.3156 -10.659 5.31727
head 18.8264 -3.98827 -0.804425
rclavicle 7.46436e-014 5.96354e-015
rhumerus 27.1898 50.0056 -38.895
rradius 133.545
rwrist -36.9715
rhand 11.7336 -26.0973
rfingers 7.12502
rthumb 36.7687 -52.2212
lclavicle 7.46436e-014 5.96354e-015
lhumerus -41.5521 -1.82348 77.7369
lradius 43.1053
lwrist -1.38513
lhand -28.1205 35.1206
lfingers 7.12502
lthumb -1.50226 65.095
rfemur 5.35031 5.8719 16.47
rtibia 19.6246
rfoot -34.0186 -31.0696
rtoes 10.3148
lfemur 11.399 39.089 -25.1129
ltibia -16.2433
lfoot 13.487 -10.2457
ltoes -26.6575
680
root -26.2151 15.8101 2.06849 -173.834 -14.1941 -179.577
lowerback 4.62804 2.05494 -3.43737
upperback -8.5473 1.88166 -0.47753
thorax -11.9142 0.981585 1.16764
lowerneck -23.7659 -2.13848 3.27682
upperneck 38.1439 -10.2984 4.97945
head 18.6963 -3.85879 -0.892149
rclavicle 2.68359e-015 -7.95139e-015
rhumerus 27.8426 49.7019 -38.4046
rradius 133.551
rwrist -37.1469
rhand 12.5454 -26.5362
rfingers 7.12502
rthumb 37.5364 -52.4601
lclavicle 2.68359e-015 -7.95139e-015
lhumerus -41.9533 -1.98659 77.8245
lradius 42.8
lwrist -1.94217
lhand -27.5738 35.0715
lfingers 7.12502
lthumb -0.974319 65.0491
rfemur 6.14952 7.18032 17.6094
rtibia 18.1899
rfoot -35.201 -31.2288
rtoes 8.48949
lfemur 11.4863 40.5924 -24.2586
ltibia -16.0063
lfoot 14.6898 -10.4692
ltoes -25.3536
681
root -26.1605 15.8166 2.09269 -173.752 -13.7244 -179.389
lowerback 4.47544 2.05501 -3.15642
upperback -8.59376 1.91516 -0.393199
thorax -11.8643 0.973258 1.1015
lowerneck -23.8777 -2.03084 3.42494
upperneck 37.9582 -9.94144 4.66231
head 18.5631 -3.72482 -0.975863
rclavicle -4.2689e-014 6.75868e-015
rhumerus 28.3856 49.3976 -38.0643
rradius 133.517
rwrist -37.5252
rhand 13.3741 -26.9663
rfingers 7.12502
rthumb 38.319 -52.6781
lclavicle -4.2689e-014 6.75868e-015
lhumerus -42.3537 -2.05382 77.8152
lradius 42.3721
lwrist -2.49861
lhand -26.9708 35.0043
lfingers 7.12502
lthumb -0.391883 64.9837
rfemur 6.80897 8.56695 18.6377
rtibia 16.7165
rfoot -37.0479 -31.3193
rtoes 6.75223
lfemur 11.5548 42.1488 -23.4847
ltibia -15.7508
lfoot 15.8883 -10.6399
ltoes -24.5139
682
root -26.1023 15.8233 2.12123 -173.643 -13.1842 -179.287
lowerback 4.36897 2.06235 -2.9747
upperback -8.631 1.94396 -0.336033
thorax -11.8361 0.970443 1.06081
lowerneck -23.9969 -1.91079 3.59058
upperneck 37.7677 -9.57966 4.34785
head 18.4328 -3.58621 -1.06017
rclavicle 6.5102e-015 -2.38542e-015
rhumerus 28.8502 49.0868 -37.8395
rradius 133.457
rwrist -38.0428
rhand 14.2623 -27.3862
rfingers 7.12502
rthumb 39.1568 -52.8611
lclavicle 6.5102e-015 -2.38542e-015
lhumerus -42.7415 -2.00852 77.7169
lradius 41.8491
lwrist -2.99898
lhand -26.4856 34.9148
lfingers 7.12502
lthumb 0.0767713 64.8945
rfemur 7.35245 9.94887 19.5015
rtibia 15.252
rfoot -39.3105 -31.3145
rtoes 5.37441
lfemur 11.6132 43.7615 -22.7942
ltibia -15.4722
lfoot 17.118 -10.7358
ltoes -24.2444
